<?xml version="1.0" standalone="no"?>
<!DOCTYPE svg PUBLIC "-//W3C//DTD SVG 20010904//EN"
 "http://www.w3.org/TR/2001/REC-SVG-20010904/DTD/svg10.dtd">
<svg version="1.0" xmlns="http://www.w3.org/2000/svg"
 width="841.000000pt" height="841.000000pt" viewBox="0 0 841.000000 841.000000"
 preserveAspectRatio="xMidYMid meet">

<g transform="translate(0.000000,841.000000) scale(0.100000,-0.100000)"
fill="#000000" stroke="none">
<path d="M3965 8404 c-22 -2 -98 -9 -170 -15 -144 -12 -363 -47 -530 -85
-1086 -246 -2043 -932 -2636 -1889 -280 -451 -469 -947 -563 -1475 -48 -270
-60 -422 -60 -735 0 -313 12 -465 60 -735 94 -528 283 -1024 563 -1475 693
-1118 1864 -1848 3171 -1977 174 -17 636 -17 810 0 959 95 1839 503 2524 1172
235 230 405 433 573 685 371 558 595 1170 680 1855 13 112 17 219 17 475 0
256 -4 363 -17 475 -107 866 -441 1627 -1001 2277 -132 153 -387 399 -546 526
-631 506 -1371 813 -2175 903 -131 14 -610 27 -700 18z m783 -2176 c608 -349
818 -470 1100 -631 l212 -121 0 -1051 0 -1051 -197 -114 c-109 -63 -340 -195
-513 -295 -879 -506 -1070 -616 -1093 -626 -22 -10 -63 11 -458 242 -632 367
-1074 625 -1236 718 l-143 83 2 221 2 222 6 -210 c4 -115 8 -215 9 -222 0 -6
29 -27 63 -46 35 -19 295 -168 578 -332 283 -163 659 -380 836 -481 l320 -185
195 112 c107 62 262 151 344 199 83 49 285 166 450 261 165 95 370 213 455
263 85 49 200 115 255 147 l100 57 0 1038 0 1039 -110 63 c-409 238 -1090 633
-1357 788 -174 101 -323 184 -330 184 -6 0 -100 -50 -207 -111 -225 -128 -219
-126 -206 -112 9 9 405 242 413 243 1 0 231 -131 510 -292z m-500 -193 c0
-137 -4 -281 -8 -320 -4 -39 -7 104 -7 320 0 216 3 359 7 320 4 -38 8 -182 8
-320z m394 -690 c375 -214 396 -225 446 -225 51 0 52 -1 52 -29 0 -24 8 -34
45 -55 l45 -27 39 26 c51 31 534 306 581 330 107 53 -116 -84 -568 -350 l-44
-25 3 -579 3 -578 -37 -51 -37 -50 -73 -4 -72 -5 -359 -207 c-197 -113 -372
-214 -387 -223 l-29 -17 0 -187 c0 -102 -3 -269 -7 -370 -8 -179 -8 -175 -13
186 l-5 370 -390 227 -390 228 -67 0 -67 0 -40 58 -40 59 8 179 8 179 1 -132
2 -133 45 0 45 0 -2 497 -3 496 -95 55 c-177 102 -630 373 -630 378 0 7 58
-25 400 -220 l325 -185 3 79 3 80 822 0 c691 0 819 2 807 14 -8 7 -107 66
-220 131 -113 65 -268 155 -345 201 -77 46 -147 86 -156 89 -9 3 -60 -19 -125
-56 -137 -77 -130 -74 -121 -64 13 15 221 135 234 135 7 0 189 -101 405 -225z
m-652 80 c0 -2 -13 -11 -30 -20 -38 -19 -40 -11 -2 9 31 17 32 18 32 11z
m-840 -1629 c-50 -45 -625 -374 -636 -363 -8 8 623 376 646 377 2 0 -2 -6 -10
-14z m2394 -113 c176 -98 426 -250 426 -259 0 -15 -576 316 -640 367 l-25 20
35 -17 c19 -9 111 -59 204 -111z m-3347 -1588 c27 -18 29 -32 8 -55 -15 -16
-19 -16 -60 -1 -42 15 -46 15 -62 -2 -25 -24 -9 -45 52 -69 90 -34 124 -93 90
-157 -27 -54 -126 -78 -198 -48 -49 21 -59 38 -38 64 18 21 19 21 62 6 54 -20
99 -12 99 17 0 22 -8 28 -75 56 -112 46 -123 153 -20 201 36 16 108 10 142
-12z m328 5 c110 -53 123 -250 21 -323 -43 -30 -142 -31 -182 -1 -48 35 -67
70 -72 128 -6 78 4 121 40 161 48 56 123 69 193 35z m395 -15 l0 -35 -75 0
-75 0 0 -45 0 -45 65 0 65 0 0 -35 0 -35 -65 0 -65 0 0 -70 0 -70 -40 0 -40 0
0 185 0 185 115 0 115 0 0 -35z m318 -2 l3 -33 -50 0 -51 0 0 -150 0 -150 -45
0 -45 0 0 150 0 150 -50 0 -50 0 0 35 0 36 143 -3 142 -3 3 -32z m118 -48 c6
-44 15 -107 19 -140 l8 -60 28 133 c16 73 31 137 34 142 4 6 21 10 39 10 l33
0 23 -107 c12 -60 25 -121 29 -138 l8 -30 6 35 c4 19 11 71 17 115 17 130 15
125 60 125 38 0 39 -1 34 -27 -2 -16 -17 -98 -32 -183 l-28 -155 -54 0 -55 0
-19 100 c-25 132 -27 138 -38 85 -5 -25 -16 -78 -24 -117 l-16 -73 -52 0 -53
0 -27 157 c-15 86 -30 170 -33 186 -6 28 -5 28 38 25 l44 -3 11 -80z m614 -87
c29 -95 55 -179 58 -185 3 -9 -9 -13 -41 -13 -44 0 -44 0 -53 43 l-9 42 -56 3
-56 3 -12 -46 c-11 -44 -12 -45 -51 -45 -22 0 -40 3 -40 8 0 6 89 301 105 350
3 7 23 12 53 12 l49 0 53 -172z m291 162 c54 -15 81 -49 81 -103 0 -51 -13
-82 -42 -97 -19 -10 -19 -14 21 -85 l41 -75 -46 0 -45 0 -33 63 c-23 44 -39
63 -55 65 -22 3 -23 0 -23 -62 l0 -66 -45 0 -45 0 0 178 c0 98 3 182 7 185 10
11 144 8 184 -3z m387 -27 l3 -33 -75 0 -76 0 0 -35 0 -35 59 0 c61 0 71 -7
71 -51 0 -17 -8 -19 -65 -19 l-65 0 0 -45 0 -45 75 0 75 0 0 -35 0 -35 -115 0
-115 0 0 185 0 186 113 -3 112 -3 3 -32z m373 27 c72 -20 105 -91 76 -162 -18
-43 -58 -67 -128 -75 l-49 -6 0 -58 0 -59 -40 0 -40 0 0 185 0 185 73 0 c39 0
88 -5 108 -10z m237 -142 l3 -148 69 0 70 0 0 -35 0 -35 -115 0 -115 0 0 178
c0 98 3 182 7 186 4 4 23 6 43 4 l35 -3 3 -147z m408 133 c62 -28 89 -79 89
-166 0 -121 -52 -180 -160 -180 -76 0 -109 20 -142 85 -49 95 -18 215 67 258
54 27 92 28 146 3z m244 -166 l0 -185 -40 0 -40 0 0 185 0 185 40 0 40 0 0
-185z m340 150 l0 -35 -50 0 -50 0 0 -150 0 -150 -40 0 -40 0 0 150 0 150 -50
0 -50 0 0 35 0 35 140 0 140 0 0 -35z m-3024 -544 c49 -22 69 -63 61 -122 -9
-69 -66 -109 -154 -109 l-33 0 0 -60 0 -60 -40 0 -40 0 0 185 0 185 83 0 c58
0 94 -6 123 -19z m340 0 c70 -32 82 -116 27 -181 l-25 -30 36 -65 c20 -36 36
-68 36 -70 0 -3 -20 -5 -45 -5 l-45 0 -32 65 c-26 52 -37 65 -55 65 -22 0 -23
-4 -23 -65 l0 -65 -40 0 -40 0 0 185 0 185 83 0 c59 0 94 -6 123 -19z m373 -9
c52 -38 66 -69 69 -150 3 -67 1 -81 -20 -111 -34 -51 -71 -73 -125 -78 -106
-11 -175 62 -175 182 0 85 35 146 102 174 35 15 120 5 149 -17z m311 -122 c0
-150 0 -150 -28 -181 -48 -54 -160 -48 -192 10 -8 15 -5 22 16 36 23 15 27 15
43 1 21 -19 52 -21 69 -4 8 8 12 56 12 150 l0 138 40 0 40 0 0 -150z m320 115
l0 -34 -72 -3 -73 -3 -3 -32 -3 -32 63 -3 c63 -3 63 -3 66 -35 l3 -32 -63 -3
-63 -3 -3 -42 -3 -42 78 -3 78 -3 3 -32 3 -33 -120 0 -121 0 0 185 0 185 115
0 115 0 0 -35z m298 15 c47 -21 50 -29 23 -54 -17 -15 -25 -16 -54 -7 -70 23
-117 -20 -117 -107 0 -46 4 -58 29 -83 32 -31 64 -36 107 -17 23 11 28 10 40
-7 19 -26 14 -37 -27 -57 -101 -52 -219 15 -235 133 -12 88 27 167 100 200 52
24 80 23 134 -1z m352 -15 l0 -35 -50 0 -50 0 0 -150 0 -150 -40 0 -40 0 0
150 0 150 -50 0 -50 0 0 35 0 35 140 0 140 0 0 -35z"/>
<path d="M3390 5010 l0 -70 850 0 850 0 0 64 c0 49 -4 65 -16 70 -9 3 -391 6
-850 6 l-834 0 0 -70z m110 0 c0 -15 -7 -20 -25 -20 -18 0 -25 5 -25 20 0 15
7 20 25 20 18 0 25 -5 25 -20z m100 0 c0 -13 -7 -20 -20 -20 -13 0 -20 7 -20
20 0 13 7 20 20 20 13 0 20 -7 20 -20z m100 0 c0 -13 -7 -20 -20 -20 -13 0
-20 7 -20 20 0 13 7 20 20 20 13 0 20 -7 20 -20z"/>
<path d="M5140 5000 l0 -39 30 17 c16 9 30 19 30 22 0 3 -14 13 -30 22 l-30
17 0 -39z"/>
<path d="M5168 4952 l-28 -17 0 -497 0 -498 40 0 40 0 0 515 c0 406 -3 515
-12 514 -7 0 -25 -8 -40 -17z"/>
<path d="M3390 4415 l0 -475 420 0 420 0 2 143 2 142 3 -120 c2 -66 5 -130 8
-142 l5 -23 420 0 420 0 0 475 c0 373 -3 475 -12 475 -7 0 -65 -29 -128 -65
-63 -35 -190 -106 -282 -157 -92 -51 -168 -96 -168 -100 0 -4 45 -44 100 -89
55 -45 100 -83 100 -84 0 -6 -200 -165 -208 -165 -5 0 -15 6 -21 13 -9 11 6
27 69 78 44 35 80 69 79 74 0 6 -36 39 -79 74 -44 35 -76 69 -73 74 4 6 0 8
-10 4 -77 -31 -54 -16 273 176 140 82 259 153 265 158 5 5 -312 9 -760 9 -460
0 -765 -4 -759 -9 5 -5 131 -80 279 -166 149 -87 275 -162 280 -168 7 -7 6 -8
-1 -4 -7 4 -29 -10 -50 -31 -22 -20 -61 -56 -88 -78 l-49 -41 81 -64 c83 -65
92 -78 69 -97 -10 -8 -38 10 -115 74 -56 47 -102 88 -101 92 0 4 45 43 100 86
54 44 96 83 92 87 -15 14 -562 319 -573 319 -7 0 -10 -151 -10 -475z m1009
296 c17 -11 1 -50 -176 -403 -105 -212 -129 -248 -148 -219 -6 10 294 631 304
631 3 0 12 -4 20 -9z"/>
<path d="M3280 3870 c0 -11 13 -29 29 -41 17 -12 27 -28 24 -35 -3 -8 0 -14 7
-14 6 0 8 5 4 12 -5 8 -2 9 12 2 10 -5 211 -10 447 -12 l427 -2 0 55 0 55
-475 0 c-466 0 -475 0 -475 -20z"/>
<path d="M4250 3835 l0 -55 414 0 415 0 60 35 c42 25 61 42 61 55 0 20 -11 20
-475 20 l-475 0 0 -55z"/>
<path d="M3500 3723 c0 -10 703 -413 719 -413 8 0 11 56 9 208 l-3 207 -362 3
c-200 1 -363 -1 -363 -5z"/>
<path d="M4250 3519 c0 -178 2 -210 14 -206 8 3 104 57 213 120 109 63 259
149 333 192 74 43 142 84 150 91 12 12 -43 14 -348 14 l-362 0 0 -211z"/>
<path d="M2413 2035 c-69 -48 -43 -215 33 -215 56 0 84 39 84 120 0 44 -5 56
-29 81 -33 32 -56 36 -88 14z"/>
<path d="M3846 1975 c-9 -35 -16 -67 -16 -70 0 -3 16 -5 35 -5 25 0 35 4 35
16 0 18 -30 124 -34 124 -2 0 -11 -29 -20 -65z"/>
<path d="M4160 2000 c0 -49 1 -50 31 -50 45 0 69 16 69 48 0 38 -17 52 -62 52
l-38 0 0 -50z"/>
<path d="M4920 1995 l0 -55 35 0 c36 0 75 28 75 53 0 32 -31 57 -71 57 l-39 0
0 -55z"/>
<path d="M5560 2037 c-15 -8 -30 -28 -38 -52 -36 -111 52 -212 123 -140 46 45
32 169 -21 194 -31 14 -33 14 -64 -2z"/>
<path d="M3100 1435 l0 -55 38 0 c43 0 72 23 72 58 0 32 -27 52 -71 52 l-39 0
0 -55z"/>
<path d="M3440 1440 l0 -50 39 0 c40 0 71 25 71 57 0 23 -32 43 -71 43 l-39 0
0 -50z"/>
<path d="M3805 1467 c-29 -24 -43 -92 -31 -142 16 -64 83 -85 127 -39 20 22
24 36 24 91 0 59 -3 67 -28 89 -35 30 -59 30 -92 1z"/>
</g>
</svg>
